<svg xmlns="http://www.w3.org/2000/svg" style="display: none;"><symbol id="icon-facebook" viewBox="0 0 486.392 486.392"><title>icon-facebook</title><path d="M243.196,0C108.891,0,0,108.891,0,243.196s108.891,243.196,243.196,243.196 s243.196-108.891,243.196-243.196C486.392,108.861,377.501,0,243.196,0z M306.062,243.165l-39.854,0.03l-0.03,145.917h-54.689 V243.196H175.01v-50.281l36.479-0.03l-0.061-29.609c0-41.039,11.126-65.997,59.431-65.997h40.249v50.311h-25.171 c-18.817,0-19.729,7.022-19.729,20.124l-0.061,25.171h45.234L306.062,243.165z" fill="#FEFEFE"/></symbol><symbol id="icon-instagram" viewBox="0 0 49.652 49.652"><title>icon-instagram</title><path d="M24.825,29.796c2.739,0,4.972-2.229,4.972-4.97c0-1.082-0.354-2.081-0.94-2.897c-0.903-1.252-2.371-2.073-4.029-2.073 c-1.659,0-3.126,0.82-4.031,2.072c-0.588,0.816-0.939,1.815-0.94,2.897C19.854,27.566,22.085,29.796,24.825,29.796z" fill="#FEFEFE"/><polygon points="35.678,18.746 35.678,14.58 35.678,13.96 35.055,13.962 30.891,13.975 30.907,18.762 " fill="#FEFEFE"/><path d="M24.826,0C11.137,0,0,11.137,0,24.826c0,13.688,11.137,24.826,24.826,24.826c13.688,0,24.826-11.138,24.826-24.826 C49.652,11.137,38.516,0,24.826,0z M38.945,21.929v11.56c0,3.011-2.448,5.458-5.457,5.458H16.164 c-3.01,0-5.457-2.447-5.457-5.458v-11.56v-5.764c0-3.01,2.447-5.457,5.457-5.457h17.323c3.01,0,5.458,2.447,5.458,5.457V21.929z" fill="#FEFEFE"/><path d="M32.549,24.826c0,4.257-3.464,7.723-7.723,7.723c-4.259,0-7.722-3.466-7.722-7.723c0-1.024,0.204-2.003,0.568-2.897 h-4.215v11.56c0,1.494,1.213,2.704,2.706,2.704h17.323c1.491,0,2.706-1.21,2.706-2.704v-11.56h-4.217 C32.342,22.823,32.549,23.802,32.549,24.826z" fill="#FEFEFE"/></symbol><symbol id="icon-twitter" viewBox="0 0 49.652 49.652"><title>icon-twitter</title><path d="M24.826,0C11.137,0,0,11.137,0,24.826c0,13.688,11.137,24.826,24.826,24.826c13.688,0,24.826-11.138,24.826-24.826 C49.652,11.137,38.516,0,24.826,0z M35.901,19.144c0.011,0.246,0.017,0.494,0.017,0.742c0,7.551-5.746,16.255-16.259,16.255 c-3.227,0-6.231-0.943-8.759-2.565c0.447,0.053,0.902,0.08,1.363,0.08c2.678,0,5.141-0.914,7.097-2.446 c-2.5-0.046-4.611-1.698-5.338-3.969c0.348,0.066,0.707,0.103,1.074,0.103c0.521,0,1.027-0.068,1.506-0.199 c-2.614-0.524-4.583-2.833-4.583-5.603c0-0.024,0-0.049,0.001-0.072c0.77,0.427,1.651,0.685,2.587,0.714 c-1.532-1.023-2.541-2.773-2.541-4.755c0-1.048,0.281-2.03,0.773-2.874c2.817,3.458,7.029,5.732,11.777,5.972 c-0.098-0.419-0.147-0.854-0.147-1.303c0-3.155,2.558-5.714,5.713-5.714c1.644,0,3.127,0.694,4.171,1.804 c1.303-0.256,2.523-0.73,3.63-1.387c-0.43,1.335-1.333,2.454-2.516,3.162c1.157-0.138,2.261-0.444,3.282-0.899 C37.987,17.334,37.018,18.341,35.901,19.144z" fill="#FEFEFE"/></symbol><symbol id="icon-vk" viewBox="0 0 97.75 97.75"><title>icon-vk</title><path d="M48.875,0C21.883,0,0,21.882,0,48.875S21.883,97.75,48.875,97.75S97.75,75.868,97.75,48.875S75.867,0,48.875,0z M73.667,54.161c2.278,2.225,4.688,4.319,6.733,6.774c0.906,1.086,1.76,2.209,2.41,3.472c0.928,1.801,0.09,3.776-1.522,3.883 l-10.013-0.002c-2.586,0.214-4.644-0.829-6.379-2.597c-1.385-1.409-2.67-2.914-4.004-4.371c-0.545-0.598-1.119-1.161-1.803-1.604 c-1.365-0.888-2.551-0.616-3.333,0.81c-0.797,1.451-0.979,3.059-1.055,4.674c-0.109,2.361-0.821,2.978-3.19,3.089 c-5.062,0.237-9.865-0.531-14.329-3.083c-3.938-2.251-6.986-5.428-9.642-9.025c-5.172-7.012-9.133-14.708-12.692-22.625 c-0.801-1.783-0.215-2.737,1.752-2.774c3.268-0.063,6.536-0.055,9.804-0.003c1.33,0.021,2.21,0.782,2.721,2.037 c1.766,4.345,3.931,8.479,6.644,12.313c0.723,1.021,1.461,2.039,2.512,2.76c1.16,0.796,2.044,0.533,2.591-0.762 c0.35-0.823,0.501-1.703,0.577-2.585c0.26-3.021,0.291-6.041-0.159-9.05c-0.28-1.883-1.339-3.099-3.216-3.455 c-0.956-0.181-0.816-0.535-0.351-1.081c0.807-0.944,1.563-1.528,3.074-1.528l11.313-0.002c1.783,0.35,2.183,1.15,2.425,2.946 l0.01,12.572c-0.021,0.695,0.349,2.755,1.597,3.21c1,0.33,1.66-0.472,2.258-1.105c2.713-2.879,4.646-6.277,6.377-9.794 c0.764-1.551,1.423-3.156,2.063-4.764c0.476-1.189,1.216-1.774,2.558-1.754l10.894,0.013c0.321,0,0.647,0.003,0.965,0.058 c1.836,0.314,2.339,1.104,1.771,2.895c-0.894,2.814-2.631,5.158-4.329,7.508c-1.82,2.516-3.761,4.944-5.563,7.471 C71.48,50.992,71.611,52.155,73.667,54.161z" fill="#FEFEFE"/></symbol><symbol id="icon-youtube" viewBox="0 0 97.75 97.75"><title>icon-youtube</title><polygon points="25.676,52.482 29.551,52.482 29.551,73.455 33.217,73.455 33.217,52.482 37.164,52.482 37.164,49.047 25.676,49.047 " fill="#FEFEFE"/><path d="M56.674,55.046c-1.212,0-2.343,0.662-3.406,1.972v-7.972h-3.295v24.409h3.295v-1.762c1.103,1.361,2.233,2.013,3.406,2.013 c1.311,0,2.193-0.69,2.633-2.044c0.221-0.771,0.334-1.982,0.334-3.665v-7.242c0-1.722-0.113-2.924-0.334-3.655 C58.868,55.736,57.984,55.046,56.674,55.046z M56.344,68.255c0,1.644-0.482,2.454-1.434,2.454c-0.541,0-1.092-0.259-1.643-0.811 V58.814c0.551-0.545,1.102-0.803,1.643-0.803c0.951,0,1.434,0.842,1.434,2.482V68.255z" fill="#FEFEFE"/><path d="M43.824,69.167c-0.731,1.033-1.422,1.542-2.084,1.542c-0.44,0-0.691-0.259-0.771-0.771c-0.03-0.106-0.03-0.508-0.03-1.28 v-13.39h-3.296v14.379c0,1.285,0.111,2.153,0.291,2.705c0.331,0.922,1.063,1.354,2.123,1.354c1.213,0,2.457-0.732,3.767-2.234 v1.984h3.298V55.268h-3.298V69.167z" fill="#FEFEFE"/><path d="M46.653,38.466c1.073,0,1.588-0.851,1.588-2.551v-7.731c0-1.701-0.515-2.548-1.588-2.548c-1.074,0-1.59,0.848-1.59,2.548 v7.731C45.063,37.616,45.579,38.466,46.653,38.466z" fill="#FEFEFE"/><path d="M48.875,0C21.882,0,0,21.882,0,48.875S21.882,97.75,48.875,97.75S97.75,75.868,97.75,48.875S75.868,0,48.875,0z M54.311,22.86h3.321v13.532c0,0.781,0,1.186,0.04,1.295c0.073,0.516,0.335,0.78,0.781,0.78c0.666,0,1.365-0.516,2.104-1.559 V22.86h3.33v18.379h-3.33v-2.004c-1.326,1.52-2.59,2.257-3.805,2.257c-1.072,0-1.812-0.435-2.146-1.365 c-0.184-0.557-0.295-1.436-0.295-2.733V22.86L54.311,22.86z M41.733,28.853c0-1.965,0.334-3.401,1.042-4.33 c0.921-1.257,2.218-1.885,3.878-1.885c1.668,0,2.964,0.628,3.885,1.885c0.698,0.928,1.032,2.365,1.032,4.33v6.436 c0,1.954-0.334,3.403-1.032,4.322c-0.921,1.254-2.217,1.881-3.885,1.881c-1.66,0-2.957-0.627-3.878-1.881 c-0.708-0.919-1.042-2.369-1.042-4.322V28.853z M32.827,16.576l2.622,9.685l2.519-9.685h3.735L37.26,31.251v9.989h-3.692v-9.989 c-0.335-1.77-1.074-4.363-2.259-7.803c-0.778-2.289-1.589-4.585-2.367-6.872H32.827z M75.186,75.061 c-0.668,2.899-3.039,5.039-5.894,5.358c-6.763,0.755-13.604,0.759-20.42,0.755c-6.813,0.004-13.658,0-20.419-0.755 c-2.855-0.319-5.227-2.458-5.893-5.358c-0.951-4.129-0.951-8.638-0.951-12.89s0.012-8.76,0.962-12.89 c0.667-2.9,3.037-5.04,5.892-5.358c6.762-0.755,13.606-0.759,20.421-0.755c6.813-0.004,13.657,0,20.419,0.755 c2.855,0.319,5.227,2.458,5.896,5.358c0.948,4.13,0.942,8.638,0.942,12.89S76.137,70.932,75.186,75.061z" fill="#FEFEFE"/><path d="M67.17,55.046c-1.686,0-2.995,0.619-3.947,1.864c-0.699,0.92-1.018,2.342-1.018,4.285v6.371 c0,1.933,0.357,3.365,1.059,4.276c0.951,1.242,2.264,1.863,3.988,1.863c1.721,0,3.072-0.651,3.984-1.972 c0.4-0.584,0.66-1.245,0.77-1.975c0.031-0.33,0.07-1.061,0.07-2.124v-0.479h-3.361c0,1.32-0.043,2.053-0.072,2.232 c-0.188,0.881-0.662,1.321-1.473,1.321c-1.132,0-1.686-0.84-1.686-2.522v-3.226h6.592v-3.767c0-1.943-0.329-3.365-1.02-4.285 C70.135,55.666,68.824,55.046,67.17,55.046z M68.782,62.218h-3.296v-1.683c0-1.682,0.553-2.523,1.654-2.523 c1.09,0,1.642,0.842,1.642,2.523V62.218z" fill="#FEFEFE"/></symbol></svg>