<svg xmlns="http://www.w3.org/2000/svg"><symbol id="icon-fb" viewBox="0 0 430.113 430.114"><title>icon-fb</title><path d="M158.08 83.3v59.22H114.7v72.4h43.38v215.2h89.12V214.93H307s5.6-34.72 8.32-72.7h-67.78v-49.5c0-7.4 9.72-17.35 19.32-17.35h48.56V0H249.4c-93.52 0-91.32 72.48-91.32 83.3z"/></symbol><symbol id="icon-instagram" viewBox="0 0 97.395 97.395"><title>icon-instagram</title><path d="M12.5 0h72.4c6.87 0 12.5 5.1 12.5 12.5v72.4c0 7.4-5.63 12.5-12.5 12.5H12.5C5.62 97.4 0 92.3 0 84.9V12.5C0 5.1 5.62 0 12.5 0zm58.45 10.82c-2.4 0-4.4 1.97-4.4 4.4V25.7c.02 2.4 2 4.4 4.4 4.4h11c2.42 0 4.4-2 4.4-4.4V15.2c0-2.4-1.98-4.38-4.4-4.38h-11zM86.4 41.2h-8.6c.83 2.64 1.27 5.44 1.27 8.34 0 16.2-13.56 29.34-30.28 29.34-16.73 0-30.28-13.14-30.28-29.34 0-2.9.44-5.7 1.25-8.35h-8.95v41.13c0 2.13 1.75 3.87 3.88 3.87H82.5c2.13 0 3.87-1.74 3.87-3.87V41.2zM48.8 29.52c-10.8 0-19.57 8.5-19.57 18.96 0 10.45 8.76 18.94 19.56 18.94 10.8 0 19.55-8.5 19.55-18.95 0-10.48-8.76-18.97-19.56-18.97z"/></symbol><symbol id="icon-ok" viewBox="0 0 95.481 95.481"><title>icon-ok</title><path d="M43 67.3c-7.4-.8-14-2.6-19.7-7-.8-.7-1.5-1.2-2-1.8-2.6-2.4-3-5.2-1-8 1.8-2.4 4.6-3 7.6-1.7l1.5 1c10.7 7.3 25.3 7.5 36 .3 1-.7 2.2-1.4 3.5-1.7 2.5-.7 5 .3 6.3 2.5 1.6 2.6 1.5 5-.4 7-3 3-6.6 5.3-10.6 6.8-3.7 1.4-7.8 2.2-11.8 2.6.6.7 1 1 1.2 1.4l16.5 16.6c2 2 2.3 4.2 1.3 6.4-1 2.4-3.7 4-6 3.8-1.7 0-3-1-4-2-4-4-8.4-8.2-12.4-12.5-1.2-1.3-1.8-1-2.8 0L33.7 93.7c-2 2-4.2 2.3-6.4 1.2-2.4-1.3-4-3.7-3.8-6 0-1.7 1-3 2-4l16.3-16.4 1.2-1.3z"/><path d="M47.5 48.3c-13.2 0-24-11-24-24.2.2-13.3 11-24 24.3-24 13.4 0 24 11 24 24.5 0 13.2-11 24-24.3 23.8zm12-24.2c0-6.4-5.2-11.7-11.8-11.7-6.6 0-11.8 5.4-11.8 12C36 30.8 41 36 47.7 36c6.6 0 11.8-5.3 11.8-12z"/></symbol><symbol id="icon-twitter" viewBox="0 0 612 612"><title>icon-twitter</title><path d="M612 116.3c-22.5 10-46.7 16.7-72 19.7 25.8-15.5 45.7-40 55-69.4C571 81 544 91.4 515.4 97c-23-24.3-55.5-39.6-91.6-39.6C354.4 57.4 298 113.7 298 183c0 9.8 1.2 19.4 3.4 28.6C197 206.3 104.6 156.3 42.6 80.4c-10.8 18.5-17 40-17 63 0 43.6 22.2 82 56 104.6-20.7-.7-40-6.4-57-15.8v1.6c0 60.8 43.3 111.5 100.7 123-10.5 3-21.6 4.5-33 4.5-8.2 0-16-.8-23.7-2.4 16 50 62.3 86 117.3 87C143 480 88.7 500 30 500c-10.2 0-20.2-.6-30-1.7 55.6 35.8 121.5 56.6 192.4 56.6 231 0 357.2-191.3 357.2-357.2l-.4-16.3c24.7-17.5 46-39.6 62.8-64.7z"/></symbol><symbol id="icon-vk" viewBox="0 0 548.358 548.358"><title>icon-vk</title><path d="M545.5 400.3c-.7-1.4-1.3-2.6-2-3.6-9.4-17-27.6-38-54.4-63v-.6h-1c-12-11-20-19-23-23-6-7-7-15-4-23 2-6 11-18 26-37 8-10 14-18 19-24 33-43 47-71 43-84l-2-2c-1-1-4-3-9-4-4-1-11-1.3-18-.3l-82 .7c-1-.4-3-.4-5 0l-3 1-1 .8-1 1c-1 .5-2 1.5-3 3-1 1.3-2 3-3 5-9 23-19 44.4-30 64-7 11.8-13.3 22-19.2 30.7-6 9-11 15-15 19s-7.4 7-10.6 10c-3.5 2.6-6 3.6-8 3.3l-5-1c-2.3-1-4.5-4-6-7-1.7-2-3-6-3.4-11-1-4-1-8-1-11-.4-3.3 0-8 0-14v-12c0-7 .5-15 .8-23.3l1-20c.3-5 .4-10 .4-16s0-10-1-13c-.3-3-1.3-6-3-9-1-3-3-5.6-6-7-2-2-5.2-3-9-4-10-2.4-23-3.6-38.4-3.8-35-.6-58 2-68 7-4 2-7.7 5-11 8.3-3 4-4 6.2-1 7 11.2 1.3 19.3 5.4 24 12l1.5 3.3c1 2.5 2.4 7 4 13 1 6.5 2 13.4 2.3 21 1 14 1 26 0 36s-2 17.4-3 23c-1 5.5-2 10-4 13.4l-3.4 6.3-1.6.8c-2.3 1-5 1.7-7.6 1.7s-6-1.4-10-4-7.5-6.4-12-11c-4-4.8-8.3-11-14-19.6-5-8.4-10-18-16-30l-4-8.3c-3-5-6.6-13-11.5-23-5-10.3-9.4-20-13-29.6-1.7-4-4-7-7-9l-1.5-1c-1-1-2.4-1.8-4.5-2.7-2-1-4-1.6-6-2l-78 .6c-8 0-13.5 2-16.4 5.6l-5-.3c-.7 1-1 2.5-1 4.6 0 2 .6 4.6 1.7 7.7 11.3 26 24 52 37.3 76.8 13.3 25 25 45 35 60.7 9.7 15 20 29.5 30 43s17 22.2 20.3 26c3.3 4 6 6.6 8 8.5l7 7c4.5 4.5 11.2 10 20 16.4 9 6.6 18.7 13 29.4 19 11 7 24 12 38 16 15 4 28 6 42 5h33c7 0 12-2 15-6l2-1c1-1 2-3 2-5 1-2 1-5 1-8 0-8 1-15 2-22 2-6 3-11 5-14.2 2-3.6 4-6.4 7-8.6 2-2 4-4 4.5-4l2.3-1c4.4-1.4 10 0 16 4.5s12 10 17.4 17c5.2 6.6 12 14 19.3 22 7.5 8.3 14 14.4 20 18.4l5.6 3.6c4 2 9 4 15 6s11.2 2.4 16 1.4l73-1c7.4 0 13-1 17-3.6s6.3-5 7-8c1-3 1-6 .3-9.2-.4-4-1-6.4-2-7.8z"/></symbol></svg>
