<svg id="branch" xmlns="http://www.w3.org/2000/svg" viewBox="0 0 720.92 219.41">
        <style>.cls-1{fill:rgba(255,255,255, .3);}</style>
    <path class="cls-1" d="M771.53,183.12c-4.86,8.53-9.83,12-17,14.47s-19.43-1.13-19.43-1.13c6.69-8.17,12.53-11.91,22.63-12.48C763,183.67,766.37,186.13,771.53,183.12Z" transform="translate(-77.21 -90.79)"/>
    <path class="cls-1" d="M752.38,201.61c-5.45,2.4-8.49-.41-13.74-.7-10.06-.56-16.25,2.49-23.75,9.88,0,0,11.79,4.94,19.14,3.27S746.67,209.5,752.38,201.61Z" transform="translate(-77.21 -90.79)"/>
    <path class="cls-1" d="M775,164.9c-10,1.74-15.46,6.15-21.25,15,0,0,12.63,2.22,19.5-1.08s11.46-7.32,15.41-16.42C783.88,166.06,780.26,164,775,164.9Z" transform="translate(-77.21 -90.79)"/>
    <path class="cls-1" d="M709,231.57c-5.82,1.15-8.17-2.25-13.21-3.67-9.68-2.72-16.36-1.08-25.26,4.52,0,0,10.45,7.36,18,7.31S701.74,238,709,231.57Z" transform="translate(-77.21 -90.79)"/>
    <path class="cls-1" d="M770.16,161.38s10.61.68,16-2.59,8.85-6.93,11.47-14.71C786.9,152.48,777.89,145.18,770.16,161.38Z" transform="translate(-77.21 -90.79)"/>
    <path class="cls-1" d="M711.93,228.13c7.47-.86,13-3.14,19.52-10.34-5.66,1.78-8.37-1.35-13.54-2.21-9.92-1.66-16.38.69-24.62,7.22C693.28,222.8,704.46,229,711.93,228.13Z" transform="translate(-77.21 -90.79)"/>
    <path class="cls-1" d="M692.76,201.62c-8.19,1.88-12.06,4.65-16.47,9.72s-7.19,17.22-7.19,17.22C691.24,225.91,683,213.65,692.76,201.62Z" transform="translate(-77.21 -90.79)"/>
    <path class="cls-1" d="M712.7,207.3c21.09-7.36,10.34-17.58,17.4-31.45-7.63,3.64-10.84,7.18-14.06,13.08S712.7,207.3,712.7,207.3Z" transform="translate(-77.21 -90.79)"/>
    <path class="cls-1" d="M696.76,201.22c-3.83,5.51-5.27,17.89-5.27,17.89,21.73-5,12.14-16.33,20.62-29.33C704.15,192.54,700.59,195.71,696.76,201.22Z" transform="translate(-77.21 -90.79)"/>
    <path class="cls-1" d="M746.57,160c-7.23,4.5-10.05,8.39-12.64,14.62s-1.36,18.65-1.36,18.65C752.8,183.6,741,174.55,746.57,160Z" transform="translate(-77.21 -90.79)"/>
    <path class="cls-1" d="M773.64,129.23c-5.29,5-7,8.8-8.14,14.44s2,15.56,2,15.56C782.14,148,771.75,142.16,773.64,129.23Z" transform="translate(-77.21 -90.79)"/>
    <path class="cls-1" d="M761.33,142.18c-6.74,5.34-9.14,9.56-11.07,16.08s.62,18.76.62,18.76C770,165.13,757.3,157.38,761.33,142.18Z" transform="translate(-77.21 -90.79)"/>
    <path class="cls-1" d="M787.59,143.21c8.63-5,8.74-11,9.15-19.71a80.49,80.49,0,0,1,1.4-10s-4.93,5.16-7.08,6.91c-6.67,5.42-11.36,7.62-12.15,17.22-.45,5.5.82,8.1.82,8.1S782.64,146.08,787.59,143.21Z" transform="translate(-77.21 -90.79)"/>
    <path class="cls-1" d="M678.08,277s7.43,7.09,13.42,7.94,10.78.21,17.33-4.07C695.82,280.64,693.55,269.71,678.08,277Z" transform="translate(-77.21 -90.79)"/>
    <path class="cls-1" d="M716.09,265s8.84,5.3,14.94,4.79,10.7-2.2,16.27-7.9C734.49,264.66,729.73,254.54,716.09,265Z" transform="translate(-77.21 -90.79)"/>
    <path class="cls-1" d="M638.56,280.46s5.73,8.52,11.38,10.64,10.45,2.52,17.72-.24C655,287.84,655.22,276.69,638.56,280.46Z" transform="translate(-77.21 -90.79)"/>
    <path class="cls-1" d="M697.37,272s8.17,6.23,14.25,6.42,10.79-1,16.89-6C715.51,273.74,712,263.13,697.37,272Z" transform="translate(-77.21 -90.79)"/>
    <path class="cls-1" d="M733.71,255.75s7.77,3.56,12.75,2.65,8.62-2.66,12.83-7.75C748.72,253.21,743.75,245.76,733.71,255.75Z" transform="translate(-77.21 -90.79)"/>
    <path class="cls-1" d="M658.41,279.78s6.61,7.85,12.46,9.35,10.67,1.38,17.61-2.16C675.6,285.35,674.57,274.23,658.41,279.78Z" transform="translate(-77.21 -90.79)"/>
    <path class="cls-1" d="M649,266.31c-4.75,2.53-10.33,10.85-10.33,10.85,16.95,4.51,15.09-6.86,25.48-13.42C657.42,262.81,653.72,263.77,649,266.31Z" transform="translate(-77.21 -90.79)"/>
    <path class="cls-1" d="M699.5,255.12c-6.77.54-10.19,2.28-14.3,5.78s-7.77,12.82-7.77,12.82C695,274.48,690.73,263.75,699.5,255.12Z" transform="translate(-77.21 -90.79)"/>
    <path class="cls-1" d="M682,260.4c-6.76-.21-10.34,1.15-14.79,4.19s-9.09,11.91-9.09,11.91C675.45,279.15,672.39,268,682,260.4Z" transform="translate(-77.21 -90.79)"/>
    <path class="cls-1" d="M716.42,247.92c-6.72,1.3-9.95,3.41-13.68,7.35s-6.37,13.61-6.37,13.61C714,267.71,708.57,257.47,716.42,247.92Z" transform="translate(-77.21 -90.79)"/>
    <path class="cls-1" d="M745.53,232.63c-5.41,2.26-7.79,4.59-10.24,8.5s-3,12.26-3,12.26C746.11,249.58,741.12,241.88,745.53,232.63Z" transform="translate(-77.21 -90.79)"/>
    <path class="cls-1" d="M732.59,238.81c-6.59,2.08-9.6,4.55-12.91,8.89S714.76,262,714.76,262C732.2,258.82,725.74,249.22,732.59,238.81Z" transform="translate(-77.21 -90.79)"/>
    <path class="cls-1" d="M747.08,240.43c-1.92,4-1.71,6.31-1.71,6.31s2.08,1.12,6.61.39c7.91-1.28,9.7-5.71,12.52-12.16a64.69,64.69,0,0,1,3.92-7.12s-5.18,2.45-7.3,3.15C754.57,233.15,750.42,233.45,747.08,240.43Z" transform="translate(-77.21 -90.79)"/>
    <path class="cls-1" d="M646.56,292.47c-7.58-1.77-7-10.73-15.81-13.93,9.29-2,8.72-11.31,15.21-13.41-6.54-1.65-10.34-1.09-15.35.91-3.62,1.45-8.39,6.67-10.9,9.43a201.48,201.48,0,0,1-55.84-15.56q3.88.54,7.67.93c4.67.48,9.24.79,13.65.94s8.68.08,12.77,0,8-.39,11.7-.75,7.2-.82,10.48-1.29c6.55-1,12.2-2.16,16.81-3.23,2.31-.54,4.36-1,6.14-1.54s3.29-.88,4.5-1.25l3.72-1.11-3.82.7c-1.24.24-2.78.5-4.59.79s-3.88.62-6.22,1c-4.66.67-10.34,1.36-16.86,1.88-3.26.24-6.73.45-10.39.54s-7.5.16-11.51.09-8.17-.27-12.47-.65-8.73-.81-13.26-1.46S563,254,558.32,253s-9.49-2.09-14.33-3.38l-.85-.23-.87-.5.72.46c-9.34-2.52-18.92-5.6-28.62-8.79A279,279,0,0,0,483,231.85a146.78,146.78,0,0,0-32.78-3.23,81.77,81.77,0,0,0-16.29,2.08,57.73,57.73,0,0,0-15.18,5.79,45.75,45.75,0,0,0-12.27,10,51.73,51.73,0,0,0-4.53,6.18,54.69,54.69,0,0,0-3.42,6.57c-.51,1.1-.91,2.24-1.35,3.35s-.77,2.23-1.1,3.39a29.17,29.17,0,0,0-1,7.15,36.66,36.66,0,0,0,2.16,13.14,35.64,35.64,0,0,0,14,17.92,34.93,34.93,0,0,0,8.56,4.07,40.71,40.71,0,0,0,7.79,1.66,49.6,49.6,0,0,0,11,0c1.26-.14,2.22-.28,2.87-.39l1-.16-1,.06c-.65,0-1.62.09-2.88.12a51.23,51.23,0,0,1-10.82-.87,36.39,36.39,0,0,1-15.11-6.5,31.91,31.91,0,0,1-7-7.16,34.68,34.68,0,0,1-4.81-9.89,32.55,32.55,0,0,1-1.36-11.73,24.73,24.73,0,0,1,1.14-5.94c.33-1,.78-2,1.17-3s.85-2,1.36-3a49.5,49.5,0,0,1,3.31-5.8,46.55,46.55,0,0,1,4.22-5.3,42.36,42.36,0,0,1,11-8.34c8.37-4.47,18.45-6.25,28.67-6.39a139.85,139.85,0,0,1,31.16,3.34,296.4,296.4,0,0,1,30.7,8.29c2.51.8,5.06,1.64,7.6,2.41s5.05,1.52,7.57,2.23c5,1.44,10.06,2.79,15,4s9.9,2.25,14.77,3.09l3.13.51a205.18,205.18,0,0,0,58.65,20c1.84,3.27,6,9.49,9.92,11.47,5.4,2.72,10.14,3.64,17.66,1.67" transform="translate(-77.21 -90.79)"/>
    <path class="cls-1" d="M680.61,168.11s10.27.3,15.32-3.09,8.2-7.09,10.23-14.7C696.36,158.94,687.32,152.36,680.61,168.11Z" transform="translate(-77.21 -90.79)"/>
    <path class="cls-1" d="M667.82,183.37S678,184.8,683.35,182s8.88-6.11,11.71-13.41C684.38,176,676.16,168.46,667.82,183.37Z" transform="translate(-77.21 -90.79)"/>
    <path class="cls-1" d="M691.72,151.47s10.27-.85,14.93-4.82,7.41-8,8.62-15.9C706.48,140.5,696.71,135,691.72,151.47Z" transform="translate(-77.21 -90.79)"/>
    <path class="cls-1" d="M637.76,209.26s9.62,3.58,15.45,2,10-4,14.25-10.53C655.44,205.65,649.1,196.47,637.76,209.26Z" transform="translate(-77.21 -90.79)"/>
    <path class="cls-1" d="M700.65,133.71s8.38-1.64,11.9-5.29,5.46-7.19,5.91-13.77C711.36,122.88,703,119.75,700.65,133.71Z" transform="translate(-77.21 -90.79)"/>
    <path class="cls-1" d="M682.11,185.44c-11.41,6.19-18.73-2.24-28.62,11.69,0,0,9.94,2.52,15.57.33S678.53,192.36,682.11,185.44Z" transform="translate(-77.21 -90.79)"/>
    <path class="cls-1" d="M648.76,180.78c-6,3.13-8.42,6.08-10.81,10.91s-2.06,14.84-2.06,14.84C652.29,200.31,644.14,192.16,648.76,180.78Z" transform="translate(-77.21 -90.79)"/>
    <path class="cls-1" d="M672.49,153.14c-5.18,4.39-7,7.79-8.25,13s1.17,14.95,1.17,14.95C680.12,171.51,670.39,165.26,672.49,153.14Z" transform="translate(-77.21 -90.79)"/>
    <path class="cls-1" d="M661.36,167.63c-5.61,3.77-7.73,7-9.58,12s-.45,15-.45,15C667,186.68,658,179.43,661.36,167.63Z" transform="translate(-77.21 -90.79)"/>
    <path class="cls-1" d="M682,137.43c-4.7,5-6.1,8.57-6.83,13.94S678,166.13,678,166.13C691.58,154.94,681.23,149.76,682,137.43Z" transform="translate(-77.21 -90.79)"/>
    <path class="cls-1" d="M698.16,132.58c9-11.11.43-14.47-1.37-24.55-3.08,5-3.65,8.27-3.37,12.88S698.16,132.58,698.16,132.58Z" transform="translate(-77.21 -90.79)"/>
    <path class="cls-1" d="M689.87,120.6c-4.14,5.53-5.15,9.29-5.31,14.75s4.32,14.45,4.32,14.45C701.23,137.09,690.37,133,689.87,120.6Z" transform="translate(-77.21 -90.79)"/>
    <path class="cls-1" d="M704.88,119.58s2.34-.3,5.6-3.54c5.69-5.65,4.55-10.3,3.08-17.18a65.14,65.14,0,0,1-1-8.07s-2.78,5-4.09,6.81c-4.08,5.58-7.27,8.24-5.92,15.85C703.36,117.82,704.88,119.58,704.88,119.58Z" transform="translate(-77.21 -90.79)"/>
    <path class="cls-1" d="M412.46,228.56a63.85,63.85,0,0,1,19.49-7.3,114.29,114.29,0,0,1,23.47-2.21h2.28l.8,0,1.6,0,1.53.08c2,.09,4.13.27,6.21.48a127,127,0,0,1,12.61,2.06,249.46,249.46,0,0,1,25.42,7.16c8.49,2.8,17,5.71,25.56,8.32a254.73,254.73,0,0,0,25.48,6.48,187.17,187.17,0,0,0,24.45,3.1,172.38,172.38,0,0,0,22-.12,182.38,182.38,0,0,0,18.43-2.23c4.34-.72,8.18-1.57,11.51-2.35q6.91-1,13.9-2.29c3.6,3,11.19,8.37,16.63,8.92,7.5.76,13.41-.28,21.29-5.91-9.64.35-14.77-9-24.58-9.17,8.27-5.91,5.25-15.61,11.72-22.36-8.35,1-12.51,3.33-17.45,7.89-3.56,3.29-6.8,11.49-8.49,15.82a247,247,0,0,1-58.47,7.19c-2-.15-4-.33-6.1-.54a190,190,0,0,1-22-3.65,204.92,204.92,0,0,0,61.44-18.27c3.4,1.59,10.4,4.22,14.74,3.54,6-.94,10.36-3,15.33-8.94-7.2,3-11.92-4.65-21-2.1,6.38-7,.49-14.27,4.53-19.76-6.28,2.47-9,5.14-11.94,9.69-2.09,3.28-2.93,10.32-3.36,14a201.24,201.24,0,0,1-61.93,21.33c-7.91-1.84-16-4.18-24.12-6.83-8.35-2.7-16.78-5.75-25.37-8.6a228.5,228.5,0,0,0-26.21-7.36,124.83,124.83,0,0,0-13.36-2.05c-2.24-.2-4.43-.44-6.68-.51l-1.67-.17h-2.39l-.86.16-1.62.16c-4.31.14-8.55.43-12.68,1a91.77,91.77,0,0,0-12,2.3A64.82,64.82,0,0,0,410,224.73a48.37,48.37,0,0,0-13.3,13.59,51.75,51.75,0,0,0-6.1,13.13,62.78,62.78,0,0,0-2.09,9c-.18,1-.26,1.85-.33,2.39l-.1.82.89-3.11A77.25,77.25,0,0,1,392.1,252,57.85,57.85,0,0,1,395,246.3a49.71,49.71,0,0,1,4.18-6.19A47.73,47.73,0,0,1,412.46,228.56Z" transform="translate(-77.21 -90.79)"/>
    <path class="cls-1" d="M103.53,182.82c4.81,8.5,9.73,11.94,16.8,14.42s19.23-1.13,19.23-1.13c-6.62-8.15-12.4-11.87-22.39-12.44C112,183.37,108.64,185.82,103.53,182.82Z" transform="translate(-77.21 -90.79)"/>
    <path class="cls-1" d="M122.49,201.24c5.39,2.39,8.4-.41,13.59-.7,10-.56,16.08,2.48,23.5,9.84,0,0-11.67,4.92-18.94,3.26S128.14,209.11,122.49,201.24Z" transform="translate(-77.21 -90.79)"/>
    <path class="cls-1" d="M100.07,164.65c9.91,1.73,15.3,6.13,21,15,0,0-12.5,2.21-19.3-1.07s-11.34-7.29-15.25-16.36C91.32,165.81,94.9,163.75,100.07,164.65Z" transform="translate(-77.21 -90.79)"/>
    <path class="cls-1" d="M165.45,231.11c5.76,1.15,8.08-2.25,13.07-3.66,9.58-2.72,16.19-1.07,25,4.51,0,0-10.34,7.33-17.78,7.28S172.59,237.54,165.45,231.11Z" transform="translate(-77.21 -90.79)"/>
    <path class="cls-1" d="M104.89,161.14s-10.5.68-15.84-2.59-8.75-6.9-11.35-14.66C88.33,152.27,97.24,145,104.89,161.14Z" transform="translate(-77.21 -90.79)"/>
    <path class="cls-1" d="M162.51,227.68c-7.39-.86-12.89-3.13-19.31-10.3,5.61,1.77,8.29-1.34,13.4-2.21,9.82-1.65,16.21.69,24.37,7.2C181,222.37,169.9,228.54,162.51,227.68Z" transform="translate(-77.21 -90.79)"/>
    <path class="cls-1" d="M181.48,201.26c8.1,1.88,11.94,4.64,16.3,9.68s7.11,17.16,7.11,17.16C183,225.47,191.18,213.25,181.48,201.26Z" transform="translate(-77.21 -90.79)"/>
    <path class="cls-1" d="M161.75,206.92c-20.87-7.33-10.23-17.53-17.22-31.34,7.55,3.63,10.72,7.16,13.92,13S161.75,206.92,161.75,206.92Z" transform="translate(-77.21 -90.79)"/>
    <path class="cls-1" d="M177.53,200.86c3.79,5.49,5.22,17.83,5.22,17.83-21.5-5-12-16.28-20.4-29.24C170.21,192.21,173.74,195.37,177.53,200.86Z" transform="translate(-77.21 -90.79)"/>
    <path class="cls-1" d="M128.23,159.73c7.16,4.48,9.95,8.36,12.51,14.58s1.35,18.59,1.35,18.59C122.07,183.29,133.75,174.27,128.23,159.73Z" transform="translate(-77.21 -90.79)"/>
    <path class="cls-1" d="M101.45,129.1c5.24,5,6.95,8.77,8.05,14.39s-2,15.51-2,15.51C93,147.85,103.32,142,101.45,129.1Z" transform="translate(-77.21 -90.79)"/>
    <path class="cls-1" d="M113.63,142c6.67,5.33,9,9.52,10.95,16s-.61,18.7-.61,18.7C105,164.89,117.62,157.17,113.63,142Z" transform="translate(-77.21 -90.79)"/>
    <path class="cls-1" d="M87.65,143c-8.54-5-8.65-10.92-9.05-19.64a80.77,80.77,0,0,0-1.38-10s4.88,5.14,7,6.88c6.61,5.41,11.24,7.59,12,17.16.44,5.48-.82,8.07-.82,8.07S92.54,145.9,87.65,143Z" transform="translate(-77.21 -90.79)"/>
    <path class="cls-1" d="M196,276.35s-7.35,7.06-13.28,7.91-10.67.21-17.15-4.06C178.45,280,180.7,269.13,196,276.35Z" transform="translate(-77.21 -90.79)"/>
    <path class="cls-1" d="M158.4,264.41s-8.75,5.28-14.79,4.78-10.58-2.2-16.1-7.87C140.19,264.09,144.9,254,158.4,264.41Z" transform="translate(-77.21 -90.79)"/>
    <path class="cls-1" d="M235.12,279.84s-5.67,8.49-11.26,10.6-10.34,2.52-17.53-.24C218.81,287.19,218.63,276.08,235.12,279.84Z" transform="translate(-77.21 -90.79)"/>
    <path class="cls-1" d="M176.93,271.43s-8.09,6.21-14.1,6.4-10.68-1-16.71-6C159,273.14,162.45,262.57,176.93,271.43Z" transform="translate(-77.21 -90.79)"/>
    <path class="cls-1" d="M141,255.21s-7.69,3.55-12.62,2.64-8.53-2.65-12.69-7.72C126.11,252.68,131,245.26,141,255.21Z" transform="translate(-77.21 -90.79)"/>
    <path class="cls-1" d="M215.47,279.16s-6.54,7.82-12.33,9.32-10.56,1.38-17.42-2.15C198.46,284.71,199.49,273.64,215.47,279.16Z" transform="translate(-77.21 -90.79)"/>
    <path class="cls-1" d="M224.83,265.73c4.71,2.53,10.22,10.82,10.22,10.82-16.77,4.49-14.94-6.83-25.21-13.38C216.45,262.24,220.12,263.21,224.83,265.73Z" transform="translate(-77.21 -90.79)"/>
    <path class="cls-1" d="M174.81,254.58c6.7.54,10.08,2.28,14.15,5.76s7.69,12.78,7.69,12.78C179.29,273.88,183.49,263.19,174.81,254.58Z" transform="translate(-77.21 -90.79)"/>
    <path class="cls-1" d="M192.12,259.84c6.69-.2,10.23,1.15,14.64,4.17s9,11.87,9,11.87C198.62,278.54,201.64,267.46,192.12,259.84Z" transform="translate(-77.21 -90.79)"/>
    <path class="cls-1" d="M158.07,247.41c6.65,1.3,9.84,3.4,13.53,7.32s6.3,13.56,6.3,13.56C160.51,267.13,165.84,256.93,158.07,247.41Z" transform="translate(-77.21 -90.79)"/>
    <path class="cls-1" d="M129.26,232.17c5.35,2.25,7.71,4.58,10.14,8.47s2.92,12.22,2.92,12.22C128.7,249.07,133.62,241.39,129.26,232.17Z" transform="translate(-77.21 -90.79)"/>
    <path class="cls-1" d="M142.07,238.33c6.52,2.07,9.5,4.53,12.78,8.86s4.86,14.21,4.86,14.21C142.46,258.28,148.85,248.7,142.07,238.33Z" transform="translate(-77.21 -90.79)"/>
    <path class="cls-1" d="M127.73,239.94c1.9,4,1.69,6.29,1.69,6.29s-2.06,1.11-6.54.39c-7.83-1.27-9.6-5.69-12.39-12.12a64.61,64.61,0,0,0-3.88-7.1s5.13,2.45,7.22,3.14C120.32,232.68,124.42,233,127.73,239.94Z" transform="translate(-77.21 -90.79)"/>
    <path class="cls-1" d="M227.2,291.82c7.5-1.77,6.91-10.7,15.65-13.89-9.2-2-8.63-11.27-15-13.37,6.47-1.65,10.23-1.09,15.19.91,3.58,1.44,8.31,6.65,10.79,9.4A198.26,198.26,0,0,0,309,259.36q-3.83.54-7.59.93c-4.62.47-9.14.78-13.51.94s-8.59.08-12.64,0-7.92-.39-11.58-.75-7.13-.82-10.37-1.29c-6.49-1-12.07-2.16-16.64-3.22-2.28-.54-4.32-1-6.07-1.53s-3.25-.88-4.45-1.24l-3.68-1.1,3.78.69c1.23.24,2.75.5,4.54.79s3.84.62,6.15,1c4.62.66,10.23,1.36,16.68,1.88,3.23.24,6.66.45,10.28.54s7.42.16,11.39.09,8.09-.27,12.34-.65,8.64-.81,13.12-1.45,9.07-1.47,13.72-2.46,9.39-2.09,14.18-3.37l.84-.23.87-.5-.71.45c9.25-2.51,18.72-5.58,28.32-8.76a274.49,274.49,0,0,1,31.08-8.65,144.24,144.24,0,0,1,32.44-3.22,80.36,80.36,0,0,1,16.12,2.08,56.87,56.87,0,0,1,15,5.77,45.34,45.34,0,0,1,12.14,10,51.54,51.54,0,0,1,4.48,6.16,54.65,54.65,0,0,1,3.38,6.55c.5,1.1.9,2.23,1.34,3.34s.76,2.22,1.08,3.38a29.27,29.27,0,0,1,1,7.13A36.78,36.78,0,0,1,474,285.63a35.48,35.48,0,0,1-13.82,17.86,34.45,34.45,0,0,1-8.47,4.05,40,40,0,0,1-7.71,1.65,48.73,48.73,0,0,1-10.93,0c-1.25-.14-2.2-.28-2.84-.39l-1-.16,1,.06c.65,0,1.6.09,2.85.12a50.34,50.34,0,0,0,10.71-.86,35.87,35.87,0,0,0,15-6.48,31.7,31.7,0,0,0,6.9-7.14,34.67,34.67,0,0,0,4.76-9.86,32.67,32.67,0,0,0,1.35-11.69,24.8,24.8,0,0,0-1.13-5.92c-.33-1-.77-2-1.15-3s-.85-2-1.34-3a49.43,49.43,0,0,0-3.28-5.78,46.34,46.34,0,0,0-4.18-5.28,41.94,41.94,0,0,0-10.93-8.32c-8.29-4.45-18.26-6.23-28.37-6.36a137.43,137.43,0,0,0-30.84,3.33,291.62,291.62,0,0,0-30.38,8.27c-2.48.79-5,1.63-7.52,2.4s-5,1.51-7.49,2.23c-5,1.43-9.95,2.78-14.88,4s-9.8,2.24-14.61,3.08l-3.1.51a202,202,0,0,1-58,19.89c-1.82,3.26-5.93,9.46-9.82,11.43-5.35,2.71-10,3.63-17.47,1.67" transform="translate(-77.21 -90.79)"/>
    <path class="cls-1" d="M193.51,167.86s-10.17.3-15.16-3.08-8.11-7.06-10.13-14.65C177.92,158.71,186.86,152.16,193.51,167.86Z" transform="translate(-77.21 -90.79)"/>
    <path class="cls-1" d="M206.16,183.07s-10.06,1.42-15.37-1.37-8.79-6.09-11.58-13.36C189.77,175.74,197.91,168.2,206.16,183.07Z" transform="translate(-77.21 -90.79)"/>
    <path class="cls-1" d="M182.51,151.28s-10.16-.85-14.77-4.8-7.33-8-8.53-15.85C167.91,140.33,177.57,134.9,182.51,151.28Z" transform="translate(-77.21 -90.79)"/>
    <path class="cls-1" d="M235.91,208.87s-9.52,3.57-15.29,2-9.86-4-14.11-10.49C218.41,205.27,224.69,196.13,235.91,208.87Z" transform="translate(-77.21 -90.79)"/>
    <path class="cls-1" d="M173.67,133.57s-8.3-1.63-11.78-5.27-5.4-7.16-5.85-13.72C163.07,122.78,171.35,119.65,173.67,133.57Z" transform="translate(-77.21 -90.79)"/>
    <path class="cls-1" d="M192,185.13c11.29,6.17,18.54-2.23,28.32,11.65,0,0-9.84,2.51-15.41.33S195.56,192,192,185.13Z" transform="translate(-77.21 -90.79)"/>
    <path class="cls-1" d="M225,180.49c5.92,3.12,8.33,6.06,10.7,10.87s2,14.79,2,14.79C221.53,200,229.59,191.83,225,180.49Z" transform="translate(-77.21 -90.79)"/>
    <path class="cls-1" d="M201.54,152.93c5.13,4.37,6.88,7.77,8.17,13s-1.15,14.9-1.15,14.9C194,171.24,203.62,165,201.54,152.93Z" transform="translate(-77.21 -90.79)"/>
    <path class="cls-1" d="M212.56,167.37c5.55,3.76,7.65,6.94,9.48,12s.44,14.92.44,14.92C207,186.37,215.9,179.14,212.56,167.37Z" transform="translate(-77.21 -90.79)"/>
    <path class="cls-1" d="M192.09,137.27c4.65,5,6,8.54,6.76,13.9s-2.72,14.72-2.72,14.72C182.65,154.73,192.89,149.57,192.09,137.27Z" transform="translate(-77.21 -90.79)"/>
    <path class="cls-1" d="M176.14,132.44c-8.88-11.07-.43-14.42,1.36-24.47,3,5,3.61,8.24,3.34,12.83S176.14,132.44,176.14,132.44Z" transform="translate(-77.21 -90.79)"/>
    <path class="cls-1" d="M184.34,120.5c4.1,5.51,5.1,9.26,5.26,14.7s-4.27,14.4-4.27,14.4C173.1,136.94,183.85,132.9,184.34,120.5Z" transform="translate(-77.21 -90.79)"/>
    <path class="cls-1" d="M169.49,119.49s-2.32-.3-5.54-3.53c-5.63-5.63-4.51-10.26-3-17.12a65.38,65.38,0,0,0,1-8s2.75,5,4,6.79c4,5.56,7.19,8.21,5.86,15.8C171,117.73,169.49,119.49,169.49,119.49Z" transform="translate(-77.21 -90.79)"/>
    <path class="cls-1" d="M458.86,228.11a62.9,62.9,0,0,0-19.28-7.27,112.3,112.3,0,0,0-23.23-2.21h-2.26l-.79,0-1.58,0-1.51.08c-2,.09-4.09.26-6.15.48a124.86,124.86,0,0,0-12.48,2.06,245.47,245.47,0,0,0-25.16,7.14c-8.4,2.79-16.84,5.69-25.29,8.3a250.58,250.58,0,0,1-25.21,6.45,184,184,0,0,1-24.2,3.09,169.35,169.35,0,0,1-21.8-.12A179.23,179.23,0,0,1,251.69,244c-4.29-.72-8.1-1.56-11.39-2.34q-6.84-1-13.76-2.28c-3.56,3-11.07,8.34-16.46,8.89-7.42.76-13.27-.28-21.06-5.89,9.54.35,14.62-8.95,24.33-9.14-8.18-5.89-5.19-15.56-11.6-22.28,8.26,1,12.38,3.32,17.26,7.86,3.53,3.28,6.73,11.45,8.4,15.76a242.76,242.76,0,0,0,57.86,7.17c2-.15,4-.33,6-.54a186.79,186.79,0,0,0,21.78-3.64,201.69,201.69,0,0,1-60.79-18.21c-3.37,1.58-10.29,4.2-14.59,3.52-5.91-.94-10.25-2.95-15.16-8.91,7.12,3,11.8-4.64,20.75-2.09-6.32-7-.48-14.23-4.48-19.7,6.21,2.47,8.94,5.12,11.81,9.66,2.07,3.27,2.9,10.28,3.33,14A198.17,198.17,0,0,0,315.24,237c7.83-1.83,15.81-4.16,23.87-6.81,8.27-2.69,16.61-5.74,25.1-8.57a224.84,224.84,0,0,1,25.93-7.33,122.7,122.7,0,0,1,13.22-2c2.21-.2,4.38-.24,6.61-.31l1.66,0H414l.85,0,1.6.06c4.26.13,8.46.38,12.55.92a90.22,90.22,0,0,1,11.91,2.26,63.9,63.9,0,0,1,20.39,9.1,48,48,0,0,1,13.16,13.54,51.74,51.74,0,0,1,6,13.08,63,63,0,0,1,2.07,8.94c.18,1,.25,1.84.33,2.38l.1.82-.89-3.1a77.36,77.36,0,0,0-3.11-8.48,57.82,57.82,0,0,0-2.88-5.69,49.57,49.57,0,0,0-4.14-6.17A47.34,47.34,0,0,0,458.86,228.11Z" transform="translate(-77.21 -90.79)"/>
</svg>
