<svg id="bread" xmlns="http://www.w3.org/2000/svg" viewBox="0 0 246.97 246.97">
    <style>.cls-1{fill:none;stroke:#cabebc;stroke-miterlimit:10;stroke-width:2px;}.cls-2{fill:#cabebc;}</style>

    <g>
        <path class="cls-1" d="M109.8,6.95a18.71,18.71,0,0,1,27.36,0c7.52,7.93,22.26,11.88,32.74,8.77A18.71,18.71,0,0,1,193.6,29.4c2.55,10.63,13.34,21.42,24,24a18.71,18.71,0,0,1,13.68,23.7c-3.11,10.48.84,25.21,8.77,32.74a18.71,18.71,0,0,1,0,27.36c-7.93,7.52-11.88,22.26-8.77,32.74a18.71,18.71,0,0,1-13.68,23.7c-10.63,2.55-21.42,13.34-24,24a18.71,18.71,0,0,1-23.7,13.68c-10.48-3.11-25.21.84-32.74,8.77a18.71,18.71,0,0,1-27.36,0c-7.52-7.93-22.26-11.88-32.74-8.77a18.71,18.71,0,0,1-23.7-13.68c-2.55-10.63-13.34-21.42-24-24a18.71,18.71,0,0,1-13.68-23.7c3.11-10.48-.84-25.21-8.77-32.74a18.71,18.71,0,0,1,0-27.36c7.93-7.52,11.88-22.26,8.77-32.74A18.71,18.71,0,0,1,29.4,53.37C40,50.82,50.82,40,53.37,29.4a18.71,18.71,0,0,1,23.7-13.68C87.55,18.83,102.28,14.88,109.8,6.95Z"/>
    </g>
    <path class="cls-2" d="M110.45,131.44c-14.34-4.08-22.72-16.35-33.91-25.21-.33-.26-.81.19-.48.48C81.76,111.53,86.81,117,92.4,122c5.06,4.46,11.05,9,17.89,10.05C110.67,132.08,110.84,131.55,110.45,131.44Z"/>
    <path class="cls-2" d="M131.27,111.21c-6-6.3-11.65-13.43-18.9-18.29-.16-.11-.37.15-.21.27,6.82,5.57,12,12.79,18.64,18.48A.33.33,0,0,0,131.27,111.21Z"/>
    <path class="cls-2" d="M90.92,81.61c0-.08-.1-.14-.14-.06C88,87.45,85,93.52,87.63,100c.08.19.39.12.32-.09C85.78,93.33,88.4,87.63,90.92,81.61Z"/>
    <path class="cls-2" d="M98,77.25c-3.56,3.67-5.19,8.55-5.81,13.53,0,.23.35.27.4.05a31.44,31.44,0,0,1,5.71-13.35C98.42,77.3,98.13,77.1,98,77.25Z"/>
    <path class="cls-2" d="M111.48,73.43c-4.14,1.63-6.61,6.24-7.42,10.41,0,.24.31.34.36.1,1-4.11,3.23-8.33,7.15-10.28C111.71,73.6,111.62,73.38,111.48,73.43Z"/>
    <path class="cls-2" d="M120.57,73a14.08,14.08,0,0,0-5.06,9.7c0,.24.39.3.42.06a16.41,16.41,0,0,1,4.9-9.5C121,73.13,120.75,72.9,120.57,73Z"/>
    <path class="cls-2" d="M104.44,75.67c-2.48,2.42-4.67,5.08-5.37,8.55a.21.21,0,0,0,.4.11A20.47,20.47,0,0,1,104.81,76,.26.26,0,0,0,104.44,75.67Z"/>
    <path class="cls-2" d="M85.67,104.13a21,21,0,0,1-1.78-9.59c.17-2.7,1.14-5.28,1.27-8,0-.06-.08-.06-.1,0-2.14,5.72-2.65,12.22.27,17.71C85.43,104.45,85.75,104.32,85.67,104.13Z"/>
    <path class="cls-2" d="M172.91,131.26c-.09-.18-.4-.05-.33.14,2,5.24,1.09,11.25-.22,16.53a48.54,48.54,0,0,1-3.12,8.71c-1,2.24-2.6,4.12-3.72,6.28a.39.39,0,0,0,.61.47c2-1.66,3.21-4.63,4.26-6.94a50.1,50.1,0,0,0,3-9.06C174.67,142.27,175.38,136.13,172.91,131.26Z"/>
    <path class="cls-2" d="M68.32,126.28c-1.58,4.25-3.42,8.89-3.43,13.49,0,.34.54.43.61.08.93-4.57,2.14-8.92,3.48-13.39C69.1,126,68.47,125.88,68.32,126.28Z"/>
    <path class="cls-2" d="M101.14,179.48c-1.28-3.1-2.71-6.09-3.7-9.31a50.65,50.65,0,0,1-1.8-11.65.2.2,0,0,0-.39,0,40.55,40.55,0,0,0,5.25,21.23C100.69,180.09,101.29,179.86,101.14,179.48Z"/>
    <path class="cls-2" d="M92.51,176.77a32.34,32.34,0,0,1-9.21-27.4c0-.14-.18-.2-.22-.06-2.15,9.61,1.58,21.32,9.16,27.72C92.43,177.18,92.68,176.94,92.51,176.77Z"/>
    <path class="cls-2" d="M115.1,182.12c-4.51-3.76-6.68-8.75-7.7-14.43,0-.11-.21-.08-.19,0,.67,5.72,3,11.18,7.66,14.71C115,182.56,115.27,182.26,115.1,182.12Z"/>
    <path class="cls-2" d="M101.22,116.25a.39.39,0,0,0-.4.68c10.67,7.6,22.17,17.34,24.14,31-9.08-7-19.3-12.35-28.3-19.47-7.55-6-16.65-12.66-19.94-22.08-.2-.57-1.21-.52-1.12.15,1.16,8.66,10.45,16.23,16.82,21.3,10.49,8.36,21.83,15.1,33.09,22.33a.72.72,0,0,0,1.08-.62C125.25,135.32,113.39,122.73,101.22,116.25Z"/>
    <path class="cls-2" d="M122.76,97.55a.46.46,0,0,0-.46.79c6.55,4.89,12.63,9.37,17,16.48,3.61,5.91,5.18,12.69,5.56,19.53a46.68,46.68,0,0,0-4.9-10.05,44,44,0,0,0-10.28-10.58c-5.51-4.11-10.66-8.59-16-13-5.07-4.2-11-7.59-15.74-12.17-.38-.37-.88.17-.57.57,3.51,4.51,8.49,7.72,12.88,11.3,4.85,4,9.42,8.25,14.4,12.05,4.32,3.3,8.51,6.41,12,10.62A53.52,53.52,0,0,1,145,137.75a.54.54,0,0,0,1-.14C145.8,120.91,137.86,105.59,122.76,97.55Z"/>
    <path class="cls-2" d="M145.29,84.54c-.67-.29-1.27.64-.59,1,10.06,5.4,23.13,13.23,22,25.78C163.38,104,154.49,98.23,148,94.85a.27.27,0,0,0-.27.46,122.15,122.15,0,0,1,10.33,8.47c3.36,3.1,7.19,7,8,11.62.17,1,1.57.84,1.81,0C172.3,99.94,157.64,89.86,145.29,84.54Z"/>
    <path class="cls-2" d="M130.66,71.63h-.48a0,0,0,0,0,0,.07h.48A0,0,0,0,0,130.66,71.63Z"/>
    <path class="cls-2" d="M174.66,89.21a34.78,34.78,0,0,0-15.42-10.59c-4.39-1.55-9.39-2.16-14-3A58.66,58.66,0,0,0,132.09,75a.53.53,0,0,0,0,1.05,134.82,134.82,0,0,1,16.39,2.4c5.32,1,10.56,2,15.42,4.51,7.26,3.75,13.18,11.61,16.87,18.7a39.24,39.24,0,0,1,3.63,10.32c-2.46-3.74-6-7-8.88-9.64-.48-.44-1.39.17-.95.73,2.09,2.71,4.14,5.44,6.09,8.25,2.52,3.62,2.9,7.36,4.33,11.34a1.11,1.11,0,0,0,.22.35q-.11,2.32-.45,4.64c-1.59-5.26-5.16-10.28-7.7-14.68-.4-.69-1.42-.08-1.06.62a106.11,106.11,0,0,1,5.12,10.94c1.33,3.62,1.39,7.21,1.9,11q-.72,2.37-1.64,4.68c-.41-6.47-3.33-13.22-5.87-18.53-.24-.49-1.06-.14-.88.37a114.48,114.48,0,0,1,3.68,11.53c1.18,5.09.14,10.21-1.13,15.13-.78,1.31-1.61,2.59-2.49,3.83-14.79,20.88-43.78,31.88-69,26.67-3.91-6.08-4.94-12.83-5.26-20a.41.41,0,0,0-.83,0c-.26,6.9,0,13.28,3,19.29-1.08-.28-2.16-.59-3.23-.94l0,0C92.07,169,87.53,159.85,86.59,148.6c0-.48-.77-.5-.76,0C86,158.74,88.77,168,95,175.77a52.63,52.63,0,0,1-9.52-5.28,1.3,1.3,0,0,0-.23-1.29c-6.43-7.83-6.47-19.11-6.22-28.73,0-.54-.79-.53-.83,0-.67,8.6-1.49,18.18,2.36,26.06a43,43,0,0,1-8.11-10.31,1.11,1.11,0,0,0,.09-.75c-1-4.37-1.59-8.07-.95-12.56.46-3.19,1.29-6.37,1-9.6a.2.2,0,0,0-.4-.05c-1.61,4.22-3.32,9.52-3.48,14.57-3.94-11.84-3.51-25.31.51-37.17a53.09,53.09,0,0,1,21-27c10-6.81,21.36-9.68,33.32-10.33.26,0,.35-.43.07-.48C107.67,70.1,90.27,79.37,79.4,90.35c-11.07,11.17-16.12,27.78-15.51,43.26s7.79,30.19,20.42,39.28c12.81,9.22,29.49,12.09,44.9,9.81,27.91-4.12,54.9-24.63,58.4-54C189.38,113.87,184.18,100.39,174.66,89.21Z"/>
</svg>
